<mxfile host="app.diagrams.net" modified="2023-12-14T18:57:56.382Z" agent="Mozilla/5.0 (Windows NT 10.0; Win64; x64) AppleWebKit/537.36 (KHTML, like Gecko) Chrome/120.0.0.0 Safari/537.36" etag="KfWRSouUpZxr0RYROrIx" version="22.1.9" type="device">
  <diagram name="Page-1" id="UAxZ1n0e4PvZW4QsoEX_">
    <mxGraphModel dx="636" dy="368" grid="1" gridSize="10" guides="1" tooltips="1" connect="1" arrows="1" fold="1" page="1" pageScale="1" pageWidth="850" pageHeight="1100" math="0" shadow="0">
      <root>
        <mxCell id="0" />
        <mxCell id="1" parent="0" />
        <mxCell id="69_rgMSmm3URahwCjF6o-32" style="edgeStyle=orthogonalEdgeStyle;rounded=0;orthogonalLoop=1;jettySize=auto;html=1;exitX=1;exitY=0.5;exitDx=0;exitDy=0;entryX=0;entryY=0.5;entryDx=0;entryDy=0;fontFamily=Times New Roman;" parent="1" source="69_rgMSmm3URahwCjF6o-10" target="69_rgMSmm3URahwCjF6o-19" edge="1">
          <mxGeometry relative="1" as="geometry" />
        </mxCell>
        <mxCell id="69_rgMSmm3URahwCjF6o-37" value="w&lt;sup&gt;2&lt;/sup&gt;" style="edgeLabel;html=1;align=center;verticalAlign=middle;resizable=0;points=[];fontFamily=Times New Roman;" parent="69_rgMSmm3URahwCjF6o-32" vertex="1" connectable="0">
          <mxGeometry x="-0.0296" y="1" relative="1" as="geometry">
            <mxPoint as="offset" />
          </mxGeometry>
        </mxCell>
        <mxCell id="dJhps7kjMGY20jvTP51H-1" style="edgeStyle=none;curved=1;rounded=0;orthogonalLoop=1;jettySize=auto;html=1;exitX=0.5;exitY=1;exitDx=0;exitDy=0;fontSize=12;startSize=8;endSize=8;endArrow=none;endFill=0;" edge="1" parent="1" source="69_rgMSmm3URahwCjF6o-10">
          <mxGeometry relative="1" as="geometry">
            <mxPoint x="310" y="270.0000000000001" as="targetPoint" />
          </mxGeometry>
        </mxCell>
        <mxCell id="69_rgMSmm3URahwCjF6o-10" value="&lt;font size=&quot;1&quot; style=&quot;&quot;&gt;&lt;b style=&quot;font-size: 28px;&quot;&gt;Î£&lt;/b&gt;&lt;/font&gt;" style="whiteSpace=wrap;html=1;aspect=fixed;fontFamily=Times New Roman;" parent="1" vertex="1">
          <mxGeometry x="280" y="190" width="60" height="60" as="geometry" />
        </mxCell>
        <mxCell id="69_rgMSmm3URahwCjF6o-30" style="rounded=0;orthogonalLoop=1;jettySize=auto;html=1;exitX=1;exitY=0.5;exitDx=0;exitDy=0;entryX=0;entryY=0.5;entryDx=0;entryDy=0;fontFamily=Times New Roman;" parent="1" source="69_rgMSmm3URahwCjF6o-23" target="69_rgMSmm3URahwCjF6o-10" edge="1">
          <mxGeometry relative="1" as="geometry" />
        </mxCell>
        <mxCell id="69_rgMSmm3URahwCjF6o-36" value="w&lt;font size=&quot;1&quot;&gt;&lt;sub&gt;2&lt;/sub&gt;&lt;sup&gt;1&lt;/sup&gt;&lt;/font&gt;" style="edgeLabel;html=1;align=center;verticalAlign=middle;resizable=0;points=[];fontFamily=Times New Roman;" parent="69_rgMSmm3URahwCjF6o-30" vertex="1" connectable="0">
          <mxGeometry x="-0.0031" y="-1" relative="1" as="geometry">
            <mxPoint as="offset" />
          </mxGeometry>
        </mxCell>
        <mxCell id="69_rgMSmm3URahwCjF6o-23" value="" style="ellipse;whiteSpace=wrap;html=1;aspect=fixed;fontFamily=Times New Roman;" parent="1" vertex="1">
          <mxGeometry x="130" y="280" width="10" height="10" as="geometry" />
        </mxCell>
        <mxCell id="69_rgMSmm3URahwCjF6o-28" style="rounded=0;orthogonalLoop=1;jettySize=auto;html=1;exitX=1;exitY=0.5;exitDx=0;exitDy=0;entryX=0;entryY=0.5;entryDx=0;entryDy=0;fontFamily=Times New Roman;" parent="1" source="69_rgMSmm3URahwCjF6o-24" target="69_rgMSmm3URahwCjF6o-10" edge="1">
          <mxGeometry relative="1" as="geometry" />
        </mxCell>
        <mxCell id="69_rgMSmm3URahwCjF6o-35" value="w&lt;sub&gt;1&lt;/sub&gt;&lt;sup&gt;1&lt;/sup&gt;" style="edgeLabel;html=1;align=center;verticalAlign=middle;resizable=0;points=[];fontFamily=Times New Roman;" parent="69_rgMSmm3URahwCjF6o-28" vertex="1" connectable="0">
          <mxGeometry x="-0.0106" relative="1" as="geometry">
            <mxPoint as="offset" />
          </mxGeometry>
        </mxCell>
        <mxCell id="69_rgMSmm3URahwCjF6o-24" value="" style="ellipse;whiteSpace=wrap;html=1;aspect=fixed;fontFamily=Times New Roman;" parent="1" vertex="1">
          <mxGeometry x="130" y="150" width="10" height="10" as="geometry" />
        </mxCell>
        <mxCell id="69_rgMSmm3URahwCjF6o-31" value="" style="group;fontFamily=Times New Roman;" parent="1" vertex="1" connectable="0">
          <mxGeometry x="440" y="190" width="60" height="60" as="geometry" />
        </mxCell>
        <mxCell id="69_rgMSmm3URahwCjF6o-19" value="" style="whiteSpace=wrap;html=1;aspect=fixed;fontFamily=Times New Roman;" parent="69_rgMSmm3URahwCjF6o-31" vertex="1">
          <mxGeometry width="60" height="60" as="geometry" />
        </mxCell>
        <mxCell id="69_rgMSmm3URahwCjF6o-21" value="" style="line;strokeWidth=2;html=1;rotation=-45;fontFamily=Times New Roman;" parent="69_rgMSmm3URahwCjF6o-31" vertex="1">
          <mxGeometry x="5" y="25" width="50" height="10" as="geometry" />
        </mxCell>
        <mxCell id="69_rgMSmm3URahwCjF6o-22" value="" style="line;strokeWidth=1;html=1;fontFamily=Times New Roman;" parent="69_rgMSmm3URahwCjF6o-31" vertex="1">
          <mxGeometry x="7.5" y="25" width="45" height="10" as="geometry" />
        </mxCell>
        <mxCell id="69_rgMSmm3URahwCjF6o-38" value="Inputs" style="text;html=1;strokeColor=none;fillColor=none;align=center;verticalAlign=middle;whiteSpace=wrap;rounded=0;fontFamily=Times New Roman;fontSize=15;" parent="1" vertex="1">
          <mxGeometry x="105" y="300" width="60" height="30" as="geometry" />
        </mxCell>
        <mxCell id="69_rgMSmm3URahwCjF6o-39" value="Neuron" style="text;html=1;strokeColor=none;fillColor=none;align=center;verticalAlign=middle;whiteSpace=wrap;rounded=0;fontFamily=Times New Roman;fontSize=15;" parent="1" vertex="1">
          <mxGeometry x="280" y="300" width="60" height="30" as="geometry" />
        </mxCell>
        <mxCell id="69_rgMSmm3URahwCjF6o-40" value="Purelin function" style="text;html=1;strokeColor=none;fillColor=none;align=center;verticalAlign=middle;whiteSpace=wrap;rounded=0;fontFamily=Times New Roman;fontSize=15;" parent="1" vertex="1">
          <mxGeometry x="420" y="300" width="100" height="30" as="geometry" />
        </mxCell>
        <mxCell id="69_rgMSmm3URahwCjF6o-41" value="p&lt;span style=&quot;font-size: 8.33333px;&quot;&gt;&lt;sub&gt;1&lt;/sub&gt;&lt;/span&gt;" style="text;html=1;strokeColor=none;fillColor=none;align=center;verticalAlign=middle;whiteSpace=wrap;rounded=0;fontFamily=Times New Roman;" parent="1" vertex="1">
          <mxGeometry x="90" y="140" width="60" height="30" as="geometry" />
        </mxCell>
        <mxCell id="69_rgMSmm3URahwCjF6o-42" value="p&lt;span style=&quot;font-size: 10px;&quot;&gt;&lt;sub&gt;2&lt;/sub&gt;&lt;/span&gt;" style="text;html=1;strokeColor=none;fillColor=none;align=center;verticalAlign=middle;whiteSpace=wrap;rounded=0;fontFamily=Times New Roman;" parent="1" vertex="1">
          <mxGeometry x="90" y="270" width="60" height="30" as="geometry" />
        </mxCell>
        <mxCell id="dOyed-C9YLFRHJtX2YkY-3" value="Output" style="text;html=1;strokeColor=none;fillColor=none;align=center;verticalAlign=middle;whiteSpace=wrap;rounded=0;fontFamily=Times New Roman;fontSize=15;" parent="1" vertex="1">
          <mxGeometry x="580" y="205" width="60" height="30" as="geometry" />
        </mxCell>
        <mxCell id="dOyed-C9YLFRHJtX2YkY-5" value="" style="edgeStyle=none;curved=1;rounded=0;orthogonalLoop=1;jettySize=auto;html=1;fontSize=12;startSize=8;endSize=8;" parent="1" source="69_rgMSmm3URahwCjF6o-19" target="dOyed-C9YLFRHJtX2YkY-3" edge="1">
          <mxGeometry relative="1" as="geometry" />
        </mxCell>
        <mxCell id="dJhps7kjMGY20jvTP51H-2" value="b&lt;sub style=&quot;font-size: 12px;&quot;&gt;1&lt;/sub&gt;" style="text;html=1;strokeColor=none;fillColor=none;align=center;verticalAlign=middle;whiteSpace=wrap;rounded=0;fontSize=12;fontFamily=Times New Roman;" vertex="1" parent="1">
          <mxGeometry x="300" y="270" width="20" height="30" as="geometry" />
        </mxCell>
      </root>
    </mxGraphModel>
  </diagram>
</mxfile>
